# xmcd
#
# Track frame offsets:
# 150
# 18312
# 32930
# 61632
# 76457
# 94057
# 109460
# 130007
# 149112
# 169512
# 197082
# 212947
# 229815
#
# Disc length: 3275 seconds
#
#
# Revision: 0
# Processed by: cddbd v1.4PL0 Copyright (c) Steve Scherf et al.
# Submitted via: FreeRIP 2.30 
#
DISCID=b70cc90d
DTITLE=Sonny Rhodes - The Blues Is My Best Friend
DYEAR=1994
DGENRE=Blues
TTITLE0=Stand by Me
TTITLE1=Thank You Lord
TTITLE2=The Blues Is My Best Friend
TTITLE3=What I Don't See Can't Hurt Me
TTITLE4=Put the Shoe on the Other Foot
TTITLE5=Right Around the Corner
TTITLE6=Trying to Make a Comeback for Myself
TTITLE7=President Clinton
TTITLE8=I Just Can't Stay
TTITLE9=Crazy Fool Blues
TTITLE10=One More Drink
TTITLE11=Can't Let You Go
TTITLE12=The Letter Song (S-Y-S-L-J-F-M)
EXTD=King Snake KS-022
EXTT0=
EXTT1=
EXTT2=
EXTT3=
EXTT4=
EXTT5=
EXTT6=
EXTT7=
EXTT8=
EXTT9=
EXTT10=
EXTT11=
EXTT12=
PLAYORDER=
